<?xml version="1.0" encoding="UTF-8"?>
<!-- Generator: Adobe Illustrator 15.0.2, SVG Export Plug-In . SVG Version: 6.00 Build 0)  -->
<!DOCTYPE svg PUBLIC "-//W3C//DTD SVG 1.1//EN" "http://www.w3.org/Graphics/SVG/1.1/DTD/svg11.dtd">
<svg version="1.1" id="Layer_1" xmlns="http://www.w3.org/2000/svg" xmlns:xlink="http://www.w3.org/1999/xlink" x="0px" y="0px" width="512px" height="748.308px" viewBox="0 0 512 748.308" enable-background="new 0 0 512 748.308" xml:space="preserve">
<path d="M270.385,438.923c7.961,0,14.385,6.423,14.385,14.385c0,7.942-6.424,14.385-14.385,14.385  c-7.942,0-14.385-6.442-14.385-14.385C256,445.346,262.442,438.923,270.385,438.923z M270.385,491.673  c7.961,0,14.385,6.442,14.385,14.404c0,7.942-6.424,14.385-14.385,14.385c-7.942,0-14.385-6.442-14.385-14.385  C256,498.115,262.442,491.673,270.385,491.673z M0,0h512v78.77h-59.077c-9.865,68.144-42.577,244.971-138.365,295.385  c95.788,50.423,128.5,227.23,138.365,295.384H512v78.77H0v-78.77h59.077c9.865-68.153,42.567-244.961,138.365-295.384  C101.645,323.74,68.942,146.913,59.077,78.77H0V0z M128,78.77c0,0,12.721,93.019,41.212,165.76  c46.403-21.981,137.788-57.5,181.25-20.799C373.827,156.452,384,78.77,384,78.77H128z M384.5,669.538  c0,0-42.154-266.615-128.5-266.615c-74.76,0-118.154,201.75-128.192,253.865c44.77-31.98,116.192-90.75,135.385-109.942  c0,0,53.25,88.962,104.423,122.692H384.5z"/>
</svg>